<?xml version="1.0" standalone="no"?><svg xmlns="http://www.w3.org/2000/svg" viewBox="0 0 1440 320"><path fill="#141414" fill-opacity="1" d="M0,192L24,160C48,128,96,64,144,42.7C192,21,240,43,288,96C336,149,384,235,432,261.3C480,288,528,256,576,224C624,192,672,160,720,149.3C768,139,816,149,864,154.7C912,160,960,160,1008,176C1056,192,1104,224,1152,245.3C1200,267,1248,277,1296,266.7C1344,256,1392,224,1416,208L1440,192L1440,0L1416,0C1392,0,1344,0,1296,0C1248,0,1200,0,1152,0C1104,0,1056,0,1008,0C960,0,912,0,864,0C816,0,768,0,720,0C672,0,624,0,576,0C528,0,480,0,432,0C384,0,336,0,288,0C240,0,192,0,144,0C96,0,48,0,24,0L0,0Z"></path></svg>